# WaveFront *.obj file (generated by Cinema 4D)

mtllib ./ETH_Logo_001.mtl

v -4.516799 7.248739 0.000000
v -0.000879 14.741536 0.000000
v 4.513255 7.248739 0.000000
v -0.000879 4.580728 0.000000
v -0.000879 9.306058 1.384535
v -0.000872 0.031098 0.000000
v -0.000879 3.725129 1.384535
v -4.516799 6.393132 0.000000
v -0.000879 3.725129 0.000000
v 4.516799 6.393132 0.000000
v -0.000879 9.306058 -1.384535
v -0.000879 3.725129 -1.384535
# 12 vertices

vn -0.379001 0.228425 0.896761
vn 0.379130 0.228412 0.896710
vn -0.163876 -0.277380 0.946681
vn 0.163940 -0.277377 0.946671
vn -0.508512 0.861055 0.000000
vn 0.508659 0.860968 0.000000
vn 0.443080 -0.314630 0.839457
vn -0.443219 -0.314608 0.839392
vn -0.379001 0.228425 -0.896761
vn 0.379130 0.228412 -0.896710
vn -0.163876 -0.277380 -0.946681
vn 0.163940 -0.277377 -0.946671
vn 0.508659 0.860968 0.000000
vn 0.443080 -0.314630 -0.839457
vn -0.443219 -0.314608 -0.839392
# 15 normals

vt 0.765310 0.532669 0.000000
vt 0.444304 0.000000 0.000000
vt 0.444279 0.532654 0.000000
vt 0.000000 1.000000 0.000000
vt 0.123375 0.532638 0.000000
vt 0.444257 1.000000 0.000000
vt 0.827012 0.635056 0.000000
vt 0.061687 0.635019 0.000000
vt 0.201049 1.000000 0.000000
vt 0.201049 0.000000 0.000000
vt 0.000000 0.500000 0.000000
vt 0.402039 0.500000 0.000000
vt 0.500105 0.591079 0.000000
vt 0.000000 0.295750 0.000000
vt 0.500115 1.000000 0.000000
vt 1.000000 0.295724 0.000000
# 16 texture coordinates

o ETH_Logo
usemtl Mat
f 5/3/1 2/2/1 1/1/1
f 5/3/2 3/5/2 2/2/2
f 1/7/3 4/6/3 5/3/3
f 5/3/4 4/6/4 3/8/4
f 10/11/5 9/10/5 7/9/5
f 9/10/6 8/12/6 7/9/6
f 6/15/7 10/14/7 7/13/7
f 7/13/8 8/16/8 6/15/8
f 2/2/9 11/3/9 1/1/9
f 3/5/10 11/3/10 2/2/10
f 4/6/11 1/7/11 11/3/11
f 4/6/12 11/3/12 3/8/12
f 9/10/5 10/11/5 12/9/5
f 8/12/13 9/10/13 12/9/13
f 10/14/14 6/15/14 12/13/14
f 8/16/15 12/13/15 6/15/15

